# xmcd
#
# Track frame offsets:
# 150
# 32321
# 52786
# 81161
# 110479
# 133826
# 151001
# 165935
# 193305
#
# Disc length: 2817 seconds
#
# Revision: 0
# Processed by: cddbd v1.4PL0 Copyright (c) Steve Scherf et al.
# Submitted via: Audion 3.0.2 (http://www.panic.com/audion/)
#
DISCID=630aff09
DTITLE=Armando Corsi - Duende
DYEAR=1900
DGENRE=
TTITLE0=Sunlight
TTITLE1=Duende
TTITLE2=Mio fratello che guardi il mondo
TTITLE3=Poinciana
TTITLE4=Milonga per trio
TTITLE5=Waiting for...
TTITLE6=Sarabanda
TTITLE7=Gliding
TTITLE8=Anita
EXTD=
EXTT0=
EXTT1=
EXTT2=
EXTT3=
EXTT4=
EXTT5=
EXTT6=
EXTT7=
EXTT8=
PLAYORDER=
